<svg xmlns="http://www.w3.org/2000/svg" width="560" height="420" viewBox="0 0 560 420">
  <defs>
    <linearGradient id="bg" x1="0%" y1="0%" x2="100%" y2="100%">
      <stop offset="0%" style="stop-color:#0a1510"/>
      <stop offset="100%" style="stop-color:#0d1c14"/>
    </linearGradient>
  </defs>
  <rect width="560" height="420" fill="url(#bg)"/>
  <ellipse cx="300" cy="200" rx="220" ry="160" fill="#22c55e" opacity="0.07"/>
  <!-- VR headset outline -->
  <rect x="150" y="100" width="260" height="160" rx="30" fill="#0f1e14" stroke="#22c55e20" stroke-width="1.5"/>
  <rect x="180" y="130" width="90" height="60" rx="10" fill="#22c55e12"/>
  <rect x="290" y="130" width="90" height="60" rx="10" fill="#22c55e12"/>
  <!-- Lens glows -->
  <circle cx="225" cy="160" r="30" fill="none" stroke="#22c55e" stroke-width="1" opacity="0.25"/>
  <circle cx="225" cy="160" r="18" fill="#22c55e" opacity="0.08"/>
  <circle cx="335" cy="160" r="30" fill="none" stroke="#22c55e" stroke-width="1" opacity="0.25"/>
  <circle cx="335" cy="160" r="18" fill="#22c55e" opacity="0.08"/>
  <!-- Bridge -->
  <path d="M255 160 Q280 145 305 160" fill="none" stroke="#22c55e30" stroke-width="2"/>
  <!-- Grid lines -->
  <line x1="160" y1="280" x2="400" y2="280" stroke="#22c55e" stroke-width="0.5" opacity="0.15"/>
  <line x1="180" y1="295" x2="380" y2="295" stroke="#22c55e" stroke-width="0.5" opacity="0.1"/>
  <!-- Bottom bar -->
  <rect x="160" y="290" width="240" height="18" rx="3" fill="#22c55e" opacity="0.05"/>
  <!-- Label -->
  <rect x="160" y="324" width="80" height="20" rx="4" fill="#22c55e12" stroke="#22c55e20" stroke-width="1"/>
  <text x="168" y="338" font-family="sans-serif" font-size="8" fill="#22c55e" opacity="0.6">COMING SOON</text>
  <text x="160" y="370" font-family="sans-serif" font-size="11" fill="#22c55e" opacity="0.7" letter-spacing="2">GOVIRTUAL</text>
  <text x="160" y="388" font-family="sans-serif" font-size="9" fill="#ffffff30">VR Experience Redesign</text>
</svg>
