<svg xmlns="http://www.w3.org/2000/svg" width="560" height="420" viewBox="0 0 560 420">
  <defs>
    <linearGradient id="bg" x1="0%" y1="0%" x2="100%" y2="100%">
      <stop offset="0%" style="stop-color:#0c1a20"/>
      <stop offset="100%" style="stop-color:#0a1828"/>
    </linearGradient>
  </defs>
  <rect width="560" height="420" fill="url(#bg)"/>
  <ellipse cx="380" cy="200" rx="220" ry="160" fill="#06b6d4" opacity="0.08"/>
  <!-- Tablet frame -->
  <rect x="30" y="40" width="360" height="250" rx="12" fill="#111c24" stroke="#ffffff0f" stroke-width="1"/>
  <rect x="30" y="40" width="360" height="30" rx="12" fill="#162030"/>
  <circle cx="50" cy="55" r="4" fill="#ffffff12"/>
  <rect x="64" y="50" width="80" height="9" rx="4.5" fill="#ffffff0d"/>
  <!-- Speakers section -->
  <text x="46" y="100" font-family="sans-serif" font-size="9" fill="#06b6d4" opacity="0.6" letter-spacing="1.5">SPEAKERS</text>
  <rect x="46" y="108" width="320" height="1" fill="#ffffff08"/>
  <!-- Speaker cards -->
  <rect x="46" y="118" width="92" height="120" rx="8" fill="#0f2030"/>
  <circle cx="92" cy="148" r="22" fill="#1a3040"/>
  <rect x="60" y="178" width="64" height="7" rx="3.5" fill="#ffffff15"/>
  <rect x="68" y="192" width="48" height="5" rx="2.5" fill="#06b6d4" opacity="0.3"/>
  <rect x="148" y="118" width="92" height="120" rx="8" fill="#0f2030"/>
  <circle cx="194" cy="148" r="22" fill="#1a3040"/>
  <rect x="162" y="178" width="64" height="7" rx="3.5" fill="#ffffff15"/>
  <rect x="170" y="192" width="48" height="5" rx="2.5" fill="#06b6d4" opacity="0.3"/>
  <rect x="250" y="118" width="92" height="120" rx="8" fill="#0f2030"/>
  <circle cx="296" cy="148" r="22" fill="#1a3040"/>
  <rect x="264" y="178" width="64" height="7" rx="3.5" fill="#ffffff15"/>
  <rect x="272" y="192" width="48" height="5" rx="2.5" fill="#06b6d4" opacity="0.3"/>
  <!-- Bottom bar -->
  <rect x="46" y="248" width="140" height="28" rx="6" fill="#06b6d4" opacity="0.18"/>
  <rect x="52" y="256" width="80" height="6" rx="3" fill="#06b6d4" opacity="0.5"/>
  <!-- Spiral accent -->
  <circle cx="460" cy="200" r="80" fill="none" stroke="#06b6d4" stroke-width="1" opacity="0.1"/>
  <circle cx="460" cy="200" r="55" fill="none" stroke="#8b5cf6" stroke-width="0.8" opacity="0.12"/>
  <circle cx="460" cy="200" r="30" fill="#06b6d4" opacity="0.05"/>
  <text x="46" y="320" font-family="sans-serif" font-size="11" fill="#06b6d4" opacity="0.7" letter-spacing="2">LOGITECH MXFEST</text>
  <text x="46" y="338" font-family="sans-serif" font-size="9" fill="#ffffff30">Landing Page Redesign</text>
</svg>
