<svg xmlns="http://www.w3.org/2000/svg" width="560" height="420" viewBox="0 0 560 420">
  <defs>
    <linearGradient id="bg" x1="0%" y1="0%" x2="100%" y2="100%">
      <stop offset="0%" style="stop-color:#0f1220"/>
      <stop offset="100%" style="stop-color:#1a1040"/>
    </linearGradient>
    <linearGradient id="acc" x1="0%" y1="0%" x2="100%" y2="0%">
      <stop offset="0%" style="stop-color:#4f46e5"/>
      <stop offset="100%" style="stop-color:#7c3aed"/>
    </linearGradient>
  </defs>
  <rect width="560" height="420" fill="url(#bg)"/>
  <!-- Glow -->
  <ellipse cx="400" cy="160" rx="200" ry="140" fill="#4f46e5" opacity="0.12"/>
  <!-- Browser frame -->
  <rect x="40" y="30" width="340" height="220" rx="10" fill="#1a1a2e" stroke="#ffffff0f" stroke-width="1"/>
  <rect x="40" y="30" width="340" height="28" rx="10" fill="#252540"/>
  <circle cx="58" cy="44" r="5" fill="#ff5f56" opacity="0.7"/>
  <circle cx="74" cy="44" r="5" fill="#ffbd2e" opacity="0.7"/>
  <circle cx="90" cy="44" r="5" fill="#27c93f" opacity="0.7"/>
  <!-- Content bars -->
  <rect x="56" y="76" width="200" height="10" rx="5" fill="#4f46e5" opacity="0.5"/>
  <rect x="56" y="96" width="280" height="6" rx="3" fill="#ffffff0d"/>
  <rect x="56" y="110" width="240" height="6" rx="3" fill="#ffffff0a"/>
  <rect x="56" y="130" width="120" height="30" rx="6" fill="url(#acc)" opacity="0.6"/>
  <rect x="56" y="174" width="290" height="60" rx="8" fill="#ffffff06"/>
  <rect x="64" y="182" width="100" height="8" rx="4" fill="#ffffff15"/>
  <rect x="64" y="198" width="260" height="6" rx="3" fill="#ffffff0c"/>
  <rect x="64" y="212" width="200" height="6" rx="3" fill="#ffffff08"/>
  <!-- Phone mockup -->
  <rect x="280" y="100" width="100" height="180" rx="14" fill="#0d0d20" stroke="#ffffff10" stroke-width="1"/>
  <rect x="285" y="116" width="90" height="148" rx="6" fill="#141428"/>
  <rect x="290" y="124" width="80" height="10" rx="3" fill="#4f46e5" opacity="0.4"/>
  <rect x="290" y="142" width="80" height="40" rx="5" fill="#ffffff06"/>
  <rect x="290" y="190" width="35" height="5" rx="2.5" fill="#ffffff12"/>
  <rect x="332" y="190" width="35" height="5" rx="2.5" fill="#4f46e5" opacity="0.3"/>
  <rect x="290" y="203" width="80" height="5" rx="2.5" fill="#ffffff0a"/>
  <rect x="290" y="216" width="60" height="5" rx="2.5" fill="#ffffff08"/>
  <!-- Label -->
  <text x="56" y="290" font-family="sans-serif" font-size="11" fill="#4f46e5" opacity="0.7" letter-spacing="2">NOLIMITCLASS</text>
  <text x="56" y="308" font-family="sans-serif" font-size="9" fill="#ffffff30">Landing Page Redesign</text>
</svg>
